<!--?xml version="1.0" standalone="no"?-->
              <svg id="sw-js-blob-svg" viewBox="0 0 100 100" xmlns="http://www.w3.org/2000/svg" version="1.1">
                    <defs> 
                        <linearGradient id="sw-gradient" x1="0" x2="1" y1="1" y2="0">
                            <stop id="stop1" stop-color="rgba(248, 117, 55, 1)" offset="0%"></stop>
                            <stop id="stop2" stop-color="rgba(251, 168, 31, 1)" offset="100%"></stop>
                        </linearGradient>
                    </defs>
                <path fill="url(#sw-gradient)" d="M22.1,-26.5C26,-23,24.8,-13.6,25.2,-5.3C25.7,3,27.7,10.1,26.5,18.3C25.3,26.5,20.9,35.8,13.1,40.7C5.3,45.7,-5.9,46.2,-13,41.3C-20.2,36.3,-23.4,25.8,-27.9,16.8C-32.3,7.7,-38.1,0,-37.9,-7.6C-37.7,-15.3,-31.6,-22.8,-24.3,-25.7C-17,-28.6,-8.5,-26.8,0.3,-27.1C9.1,-27.5,18.1,-29.9,22.1,-26.5Z" width="100%" height="100%" transform="translate(50 50)" stroke-width="0" style="transition: all 0.3s ease 0s;"></path>
              </svg>